<svg width="43" height="43" viewBox="0 0 43 43" fill="none" xmlns="http://www.w3.org/2000/svg">
<path d="M9.08735 2.14665e-05C7.89325 -0.00257671 6.7104 0.2307 5.60671 0.686461C4.50301 1.14222 3.5002 1.81149 2.65584 2.65584C1.81149 3.5002 1.14222 4.50301 0.686461 5.60671C0.2307 6.7104 -0.00257671 7.89325 2.14665e-05 9.08735V33.9127C-0.00257671 35.1067 0.2307 36.2896 0.686461 37.3933C1.14222 38.497 1.81149 39.4998 2.65584 40.3442C3.5002 41.1885 4.50301 41.8578 5.60671 42.3135C6.7104 42.7693 7.89325 43.0026 9.08735 43H33.9127C35.1067 43.0026 36.2896 42.7693 37.3933 42.3135C38.497 41.8578 39.4998 41.1885 40.3442 40.3442C41.1885 39.4998 41.8578 38.497 42.3135 37.3933C42.7693 36.2896 43.0026 35.1067 43 33.9127V9.08735C43.0026 7.89325 42.7693 6.7104 42.3135 5.60671C41.8578 4.50301 41.1885 3.5002 40.3442 2.65584C39.4998 1.81149 38.497 1.14222 37.3933 0.686461C36.2896 0.2307 35.1067 -0.00257671 33.9127 2.14665e-05H9.08735ZM23.9349 8.95835L25.4954 11.5025L28.475 11.6996L28.4105 14.6827L30.8077 16.46L29.1468 18.9343L30.2039 21.7275L27.4627 22.91L27.0219 24.992L26.8427 25.8251L25.0869 25.5384V36.9459L21.5036 32.1694L17.9203 36.9459V25.8322L16.675 26.1117L15.8903 23.2325L13.0917 22.2041L13.9911 19.359L12.1923 16.9796L14.4838 15.0715L14.2563 12.0973L17.2161 11.7336L18.6369 9.10885L21.3244 10.3988L23.9349 8.95835ZM23.306 11.3556L21.3818 12.4163L19.4002 11.4631L18.3574 13.3963L16.1734 13.665L16.3418 15.8563L14.6523 17.2627L15.9781 19.015L15.3152 21.1112L17.3774 21.8673L17.9543 23.9886L20.1007 23.512L21.7311 24.9848L23.2773 23.426L25.4452 23.7772L25.9021 21.6326L27.9213 20.7583L27.1402 18.7032L28.3692 16.8757L26.6027 15.5678L26.6475 13.3748L24.4527 13.2279L23.306 11.3556ZM21.5036 13.6525C23.9671 13.6525 25.9827 15.6681 25.9827 18.1317C25.9827 20.5952 23.9671 22.6108 21.5036 22.6108C20.3168 22.6071 19.1797 22.1339 18.3405 21.2947C17.5013 20.4556 17.0282 19.3185 17.0244 18.1317C17.0244 15.6681 19.04 13.6525 21.5036 13.6525ZM21.5036 15.4442C20.0093 15.4442 18.8161 16.6374 18.8161 18.1317C18.8161 19.6259 20.0093 20.8192 21.5036 20.8192C22.9978 20.8192 24.1911 19.6259 24.1911 18.1317C24.1911 16.6374 22.9978 15.4442 21.5036 15.4442ZM19.7119 25.5742V31.5692L21.5036 29.1791L23.2952 31.5656V25.9487L21.801 27.4609L19.7119 25.5742Z" fill="black"/>
</svg>
