<svg width="193" height="68" viewBox="0 0 193 68" fill="none" xmlns="http://www.w3.org/2000/svg">
<rect opacity="0.9" x="0.34984" y="0.34984" width="192.3" height="67.3003" rx="13.6978" fill="#D4854D" stroke="#502404" stroke-width="0.699681"/>
<rect opacity="0.9" x="4.34984" y="3.34984" width="184.3" height="61.3003" rx="13.6978" fill="#FFF2E4" stroke="#502404" stroke-width="0.699681"/>
<rect opacity="0.9" x="7.34984" y="6.34984" width="178.3" height="55.3003" rx="12.2444" fill="#FFF3E5" stroke="#D1AB99" stroke-width="0.699681" stroke-dasharray="4.2 4.2"/>
<path d="M163.765 10.7031C163.996 9.9912 165.004 9.9912 165.235 10.7031L165.85 12.5967C165.99 13.0273 166.392 13.3184 166.845 13.3184H168.835C169.584 13.3184 169.895 14.2768 169.289 14.7168L167.679 15.8867C167.312 16.1529 167.159 16.6249 167.299 17.0557L167.914 18.9492C168.145 19.661 167.33 20.2524 166.725 19.8125L165.114 18.6426C164.748 18.3765 164.252 18.3765 163.886 18.6426L162.275 19.8125C161.67 20.2524 160.855 19.661 161.086 18.9492L161.701 17.0557C161.841 16.6249 161.688 16.1529 161.321 15.8867L159.711 14.7168C159.105 14.2768 159.416 13.3184 160.165 13.3184H162.155C162.608 13.3184 163.01 13.0273 163.15 12.5967L163.765 10.7031Z" fill="url(#paint0_linear_20_117)" stroke="#B28565" stroke-width="0.272727"/>
<path d="M175.314 21.5225C175.531 20.8587 176.469 20.8587 176.686 21.5225L177.26 23.29C177.39 23.6921 177.766 23.9639 178.188 23.9639H180.046C180.745 23.9639 181.035 24.8579 180.47 25.2686L178.967 26.3613C178.625 26.6098 178.482 27.0502 178.612 27.4521L179.187 29.2188C179.402 29.8831 178.642 30.4355 178.077 30.0254L176.573 28.9336C176.231 28.6851 175.769 28.6851 175.427 28.9336L173.923 30.0254C173.358 30.4355 172.598 29.8831 172.813 29.2188L173.388 27.4521C173.518 27.0502 173.375 26.6098 173.033 26.3613L171.53 25.2686C170.965 24.8579 171.255 23.9639 171.954 23.9639H173.812C174.234 23.9639 174.61 23.6921 174.74 23.29L175.314 21.5225Z" fill="url(#paint1_linear_20_117)" stroke="#B28565" stroke-width="0.254545"/>
<defs>
<linearGradient id="paint0_linear_20_117" x1="162.909" y1="13.4545" x2="167" y2="23" gradientUnits="userSpaceOnUse">
<stop stop-color="#FFD579"/>
<stop offset="0.620246" stop-color="#FF9A18"/>
</linearGradient>
<linearGradient id="paint1_linear_20_117" x1="174.515" y1="24.0909" x2="178.333" y2="33" gradientUnits="userSpaceOnUse">
<stop stop-color="#FFD579"/>
<stop offset="0.620246" stop-color="#FF9A18"/>
</linearGradient>
</defs>
</svg>
