<svg width="36" height="47" viewBox="0 0 36 47" fill="none" xmlns="http://www.w3.org/2000/svg">
<path d="M3.91686 0C1.75369 0 0 1.7625 0 3.91686V39.1669C0 41.3206 1.75369 43.0837 3.91686 43.0837H7.83314V47L12.7294 43.0837L17.625 47V43.0837H31.3331C33.4975 43.0837 35.25 41.3212 35.25 39.1669V37.2087C35.25 39.3625 33.4975 41.125 31.3331 41.125H17.625V39.1669H31.3331C33.4975 39.1669 35.25 37.4044 35.25 35.25V33.2919C35.25 35.4462 33.4975 37.2087 31.3331 37.2087H3.91686C3.34575 37.2087 2.78161 37.0834 2.26423 36.8415C2.73716 35.841 3.7271 35.25 4.89622 35.25H31.3326C33.4975 35.25 35.25 33.4875 35.25 31.3337V3.91686C35.25 1.7625 33.4975 0 31.3331 0H3.91686ZM2.01924 38.6775C2.6001 38.9987 3.25307 39.1671 3.91686 39.1669H7.83314V41.125H4.89564C3.45391 41.125 2.26775 40.0187 2.01924 38.6775Z" fill="black"/>
</svg>
