<svg width="82" height="82" viewBox="0 0 82 82" fill="none" xmlns="http://www.w3.org/2000/svg">
<circle cx="41" cy="41" r="41" fill="#FBADA7"/>
<circle cx="41" cy="41" r="37" fill="#FBADA7" stroke="#E87A64" stroke-width="2" stroke-dasharray="10 2"/>
<mask id="path-3-inside-1_15_35" fill="white">
<path d="M69.9883 41.0693L38.6914 59.1387V49.9189L22 59.5566V23.418L38.6914 33.0547V23L69.9883 41.0693Z"/>
</mask>
<path d="M69.9883 41.0693L38.6914 59.1387V49.9189L22 59.5566V23.418L38.6914 33.0547V23L69.9883 41.0693Z" fill="url(#paint0_linear_15_35)"/>
<path d="M69.9883 41.0693L71.4883 43.6674L75.9883 41.0693L71.4883 38.4713L69.9883 41.0693ZM38.6914 59.1387H35.6914V64.3348L40.1914 61.7367L38.6914 59.1387ZM38.6914 49.9189H41.6914V44.7225L37.1913 47.3209L38.6914 49.9189ZM22 59.5566H19V64.753L23.5001 62.1547L22 59.5566ZM22 23.418L23.5 20.8199L19 18.2218V23.418H22ZM38.6914 33.0547L37.1914 35.6528L41.6914 38.2508V33.0547H38.6914ZM38.6914 23L40.1914 20.4019L35.6914 17.8038V23H38.6914ZM69.9883 41.0693L68.4883 38.4713L37.1914 56.5406L38.6914 59.1387L40.1914 61.7367L71.4883 43.6674L69.9883 41.0693ZM38.6914 59.1387H41.6914V49.9189H38.6914H35.6914V59.1387H38.6914ZM38.6914 49.9189L37.1913 47.3209L20.4999 56.9586L22 59.5566L23.5001 62.1547L40.1915 52.517L38.6914 49.9189ZM22 59.5566H25V23.418H22H19V59.5566H22ZM22 23.418L20.5 26.016L37.1914 35.6528L38.6914 33.0547L40.1914 30.4566L23.5 20.8199L22 23.418ZM38.6914 33.0547H41.6914V23H38.6914H35.6914V33.0547H38.6914ZM38.6914 23L37.1914 25.5981L68.4883 43.6674L69.9883 41.0693L71.4883 38.4713L40.1914 20.4019L38.6914 23Z" fill="#7E3F26" mask="url(#path-3-inside-1_15_35)"/>
<defs>
<linearGradient id="paint0_linear_15_35" x1="45.9941" y1="23" x2="45.9941" y2="59.5566" gradientUnits="userSpaceOnUse">
<stop stop-color="#934518"/>
<stop offset="1" stop-color="#85401E"/>
</linearGradient>
</defs>
</svg>
